<?xml version="1.0" encoding="UTF-8" standalone="no"?>
<!DOCTYPE svg PUBLIC "-//W3C//DTD SVG 1.1//EN"
 "http://www.w3.org/Graphics/SVG/1.1/DTD/svg11.dtd">
<!-- Generated by graphviz version 2.40.1 (20161225.0304)
 -->
<!-- Title: posts Pages: 1 -->
<svg width="256pt" height="315pt"
 viewBox="0.00 0.00 256.00 315.00" xmlns="http://www.w3.org/2000/svg" xmlns:xlink="http://www.w3.org/1999/xlink">
<g id="graph0" class="graph" transform="scale(1 1) rotate(0) translate(4 311)">
<title>posts</title>
<polygon fill="#ffffff" stroke="transparent" points="-4,4 -4,-311 252,-311 252,4 -4,4"/>
<!-- posts -->
<g id="node1" class="node">
<title>posts</title>
<polygon fill="#efefef" stroke="transparent" points="46,-225.5 46,-260.5 202,-260.5 202,-225.5 46,-225.5"/>
<polygon fill="none" stroke="#000000" points="46,-225.5 46,-260.5 202,-260.5 202,-225.5 46,-225.5"/>
<text text-anchor="start" x="53.8658" y="-238.3" font-family="Arial Bold" font-size="18.00" fill="#000000">posts</text>
<text text-anchor="start" x="96.8804" y="-238.3" font-family="Arial" font-size="14.00" fill="#000000"> </text>
<text text-anchor="start" x="100.771" y="-238.3" font-family="Arial" font-size="14.00" fill="#666666">[BASE TABLE]</text>
<polygon fill="none" stroke="#000000" points="46,-195.5 46,-225.5 202,-225.5 202,-195.5 46,-195.5"/>
<text text-anchor="start" x="53" y="-206.9" font-family="Arial" font-size="14.00" fill="#000000">id </text>
<text text-anchor="start" x="67.7798" y="-206.9" font-family="Arial" font-size="14.00" fill="#666666">[int]</text>
<polygon fill="none" stroke="#000000" points="46,-165.5 46,-195.5 202,-195.5 202,-165.5 46,-165.5"/>
<text text-anchor="start" x="53" y="-176.9" font-family="Arial" font-size="14.00" fill="#000000">user_id </text>
<text text-anchor="start" x="102.7882" y="-176.9" font-family="Arial" font-size="14.00" fill="#666666">[int]</text>
<polygon fill="none" stroke="#000000" points="46,-135.5 46,-165.5 202,-165.5 202,-135.5 46,-135.5"/>
<text text-anchor="start" x="53" y="-146.9" font-family="Arial" font-size="14.00" fill="#000000">mime </text>
<text text-anchor="start" x="91.101" y="-146.9" font-family="Arial" font-size="14.00" fill="#666666">[varchar(64)]</text>
<polygon fill="none" stroke="#000000" points="46,-105.5 46,-135.5 202,-135.5 202,-105.5 46,-105.5"/>
<text text-anchor="start" x="53" y="-116.9" font-family="Arial" font-size="14.00" fill="#000000">imgdata </text>
<text text-anchor="start" x="106.6788" y="-116.9" font-family="Arial" font-size="14.00" fill="#666666">[mediumblob]</text>
<polygon fill="none" stroke="#000000" points="46,-75.5 46,-105.5 202,-105.5 202,-75.5 46,-75.5"/>
<text text-anchor="start" x="53" y="-86.9" font-family="Arial" font-size="14.00" fill="#000000">body </text>
<text text-anchor="start" x="87.2384" y="-86.9" font-family="Arial" font-size="14.00" fill="#666666">[text]</text>
<polygon fill="none" stroke="#000000" points="46,-45.5 46,-75.5 202,-75.5 202,-45.5 46,-45.5"/>
<text text-anchor="start" x="52.817" y="-56.9" font-family="Arial" font-size="14.00" fill="#000000">created_at </text>
<text text-anchor="start" x="122.845" y="-56.9" font-family="Arial" font-size="14.00" fill="#666666">[timestamp]</text>
<polygon fill="none" stroke="#000000" stroke-width="3" points="44.5,-44.5 44.5,-262.5 203.5,-262.5 203.5,-44.5 44.5,-44.5"/>
</g>
</g>
</svg>
