<?xml version="1.0" encoding="UTF-8" standalone="no"?>
<!DOCTYPE svg PUBLIC "-//W3C//DTD SVG 1.1//EN"
 "http://www.w3.org/Graphics/SVG/1.1/DTD/svg11.dtd">
<!-- Generated by graphviz version 2.40.1 (20161225.0304)
 -->
<!-- Title: isuconp Pages: 1 -->
<svg width="842pt" height="309pt"
 viewBox="0.00 0.00 841.50 309.00" xmlns="http://www.w3.org/2000/svg" xmlns:xlink="http://www.w3.org/1999/xlink">
<g id="graph0" class="graph" transform="scale(1 1) rotate(0) translate(4 305)">
<title>isuconp</title>
<polygon fill="#ffffff" stroke="transparent" points="-4,4 -4,-305 837.5,-305 837.5,4 -4,4"/>
<!-- comments -->
<g id="node1" class="node">
<title>comments</title>
<polygon fill="#efefef" stroke="transparent" points="43,-207.5 43,-242.5 237,-242.5 237,-207.5 43,-207.5"/>
<polygon fill="none" stroke="#000000" points="43,-207.5 43,-242.5 237,-242.5 237,-207.5 43,-207.5"/>
<text text-anchor="start" x="49.8705" y="-220.3" font-family="Arial Bold" font-size="18.00" fill="#000000">comments</text>
<text text-anchor="start" x="132.8757" y="-220.3" font-family="Arial" font-size="14.00" fill="#000000"> </text>
<text text-anchor="start" x="136.7663" y="-220.3" font-family="Arial" font-size="14.00" fill="#666666">[BASE TABLE]</text>
<polygon fill="none" stroke="#000000" points="43,-177.5 43,-207.5 237,-207.5 237,-177.5 43,-177.5"/>
<text text-anchor="start" x="50" y="-188.9" font-family="Arial" font-size="14.00" fill="#000000">id </text>
<text text-anchor="start" x="64.7798" y="-188.9" font-family="Arial" font-size="14.00" fill="#666666">[int]</text>
<polygon fill="none" stroke="#000000" points="43,-147.5 43,-177.5 237,-177.5 237,-147.5 43,-147.5"/>
<text text-anchor="start" x="50" y="-158.9" font-family="Arial" font-size="14.00" fill="#000000">post_id </text>
<text text-anchor="start" x="99.0182" y="-158.9" font-family="Arial" font-size="14.00" fill="#666666">[int]</text>
<polygon fill="none" stroke="#000000" points="43,-117.5 43,-147.5 237,-147.5 237,-117.5 43,-117.5"/>
<text text-anchor="start" x="50" y="-128.9" font-family="Arial" font-size="14.00" fill="#000000">user_id </text>
<text text-anchor="start" x="99.7882" y="-128.9" font-family="Arial" font-size="14.00" fill="#666666">[int]</text>
<polygon fill="none" stroke="#000000" points="43,-87.5 43,-117.5 237,-117.5 237,-87.5 43,-87.5"/>
<text text-anchor="start" x="50" y="-98.9" font-family="Arial" font-size="14.00" fill="#000000">comment </text>
<text text-anchor="start" x="111.4502" y="-98.9" font-family="Arial" font-size="14.00" fill="#666666">[text]</text>
<polygon fill="none" stroke="#000000" points="43,-57.5 43,-87.5 237,-87.5 237,-57.5 43,-57.5"/>
<text text-anchor="start" x="50" y="-68.9" font-family="Arial" font-size="14.00" fill="#000000">created_at </text>
<text text-anchor="start" x="120.028" y="-68.9" font-family="Arial" font-size="14.00" fill="#666666">[timestamp]</text>
</g>
<!-- posts -->
<g id="node2" class="node">
<title>posts</title>
<polygon fill="#efefef" stroke="transparent" points="341,-222.5 341,-257.5 497,-257.5 497,-222.5 341,-222.5"/>
<polygon fill="none" stroke="#000000" points="341,-222.5 341,-257.5 497,-257.5 497,-222.5 341,-222.5"/>
<text text-anchor="start" x="348.8658" y="-235.3" font-family="Arial Bold" font-size="18.00" fill="#000000">posts</text>
<text text-anchor="start" x="391.8804" y="-235.3" font-family="Arial" font-size="14.00" fill="#000000"> </text>
<text text-anchor="start" x="395.771" y="-235.3" font-family="Arial" font-size="14.00" fill="#666666">[BASE TABLE]</text>
<polygon fill="none" stroke="#000000" points="341,-192.5 341,-222.5 497,-222.5 497,-192.5 341,-192.5"/>
<text text-anchor="start" x="348" y="-203.9" font-family="Arial" font-size="14.00" fill="#000000">id </text>
<text text-anchor="start" x="362.7798" y="-203.9" font-family="Arial" font-size="14.00" fill="#666666">[int]</text>
<polygon fill="none" stroke="#000000" points="341,-162.5 341,-192.5 497,-192.5 497,-162.5 341,-162.5"/>
<text text-anchor="start" x="348" y="-173.9" font-family="Arial" font-size="14.00" fill="#000000">user_id </text>
<text text-anchor="start" x="397.7882" y="-173.9" font-family="Arial" font-size="14.00" fill="#666666">[int]</text>
<polygon fill="none" stroke="#000000" points="341,-132.5 341,-162.5 497,-162.5 497,-132.5 341,-132.5"/>
<text text-anchor="start" x="348" y="-143.9" font-family="Arial" font-size="14.00" fill="#000000">mime </text>
<text text-anchor="start" x="386.101" y="-143.9" font-family="Arial" font-size="14.00" fill="#666666">[varchar(64)]</text>
<polygon fill="none" stroke="#000000" points="341,-102.5 341,-132.5 497,-132.5 497,-102.5 341,-102.5"/>
<text text-anchor="start" x="348" y="-113.9" font-family="Arial" font-size="14.00" fill="#000000">imgdata </text>
<text text-anchor="start" x="401.6788" y="-113.9" font-family="Arial" font-size="14.00" fill="#666666">[mediumblob]</text>
<polygon fill="none" stroke="#000000" points="341,-72.5 341,-102.5 497,-102.5 497,-72.5 341,-72.5"/>
<text text-anchor="start" x="348" y="-83.9" font-family="Arial" font-size="14.00" fill="#000000">body </text>
<text text-anchor="start" x="382.2384" y="-83.9" font-family="Arial" font-size="14.00" fill="#666666">[text]</text>
<polygon fill="none" stroke="#000000" points="341,-42.5 341,-72.5 497,-72.5 497,-42.5 341,-42.5"/>
<text text-anchor="start" x="347.817" y="-53.9" font-family="Arial" font-size="14.00" fill="#000000">created_at </text>
<text text-anchor="start" x="417.845" y="-53.9" font-family="Arial" font-size="14.00" fill="#666666">[timestamp]</text>
</g>
<!-- users -->
<g id="node3" class="node">
<title>users</title>
<polygon fill="#efefef" stroke="transparent" points="602,-222.5 602,-257.5 791,-257.5 791,-222.5 602,-222.5"/>
<polygon fill="none" stroke="#000000" points="602,-222.5 602,-257.5 791,-257.5 791,-222.5 602,-222.5"/>
<text text-anchor="start" x="625.8708" y="-235.3" font-family="Arial Bold" font-size="18.00" fill="#000000">users</text>
<text text-anchor="start" x="669.8754" y="-235.3" font-family="Arial" font-size="14.00" fill="#000000"> </text>
<text text-anchor="start" x="673.766" y="-235.3" font-family="Arial" font-size="14.00" fill="#666666">[BASE TABLE]</text>
<polygon fill="none" stroke="#000000" points="602,-192.5 602,-222.5 791,-222.5 791,-192.5 602,-192.5"/>
<text text-anchor="start" x="609" y="-203.9" font-family="Arial" font-size="14.00" fill="#000000">id </text>
<text text-anchor="start" x="623.7798" y="-203.9" font-family="Arial" font-size="14.00" fill="#666666">[int]</text>
<polygon fill="none" stroke="#000000" points="602,-162.5 602,-192.5 791,-192.5 791,-162.5 602,-162.5"/>
<text text-anchor="start" x="608.9804" y="-173.9" font-family="Arial" font-size="14.00" fill="#000000">account_name </text>
<text text-anchor="start" x="704.683" y="-173.9" font-family="Arial" font-size="14.00" fill="#666666">[varchar(64)]</text>
<polygon fill="none" stroke="#000000" points="602,-132.5 602,-162.5 791,-162.5 791,-132.5 602,-132.5"/>
<text text-anchor="start" x="609" y="-143.9" font-family="Arial" font-size="14.00" fill="#000000">passhash </text>
<text text-anchor="start" x="672.8036" y="-143.9" font-family="Arial" font-size="14.00" fill="#666666">[varchar(128)]</text>
<polygon fill="none" stroke="#000000" points="602,-102.5 602,-132.5 791,-132.5 791,-102.5 602,-102.5"/>
<text text-anchor="start" x="609" y="-113.9" font-family="Arial" font-size="14.00" fill="#000000">authority </text>
<text text-anchor="start" x="666.5694" y="-113.9" font-family="Arial" font-size="14.00" fill="#666666">[tinyint(1)]</text>
<polygon fill="none" stroke="#000000" points="602,-72.5 602,-102.5 791,-102.5 791,-72.5 602,-72.5"/>
<text text-anchor="start" x="609" y="-83.9" font-family="Arial" font-size="14.00" fill="#000000">del_flg </text>
<text text-anchor="start" x="654.1248" y="-83.9" font-family="Arial" font-size="14.00" fill="#666666">[tinyint(1)]</text>
<polygon fill="none" stroke="#000000" points="602,-42.5 602,-72.5 791,-72.5 791,-42.5 602,-42.5"/>
<text text-anchor="start" x="609" y="-53.9" font-family="Arial" font-size="14.00" fill="#000000">created_at </text>
<text text-anchor="start" x="679.028" y="-53.9" font-family="Arial" font-size="14.00" fill="#666666">[timestamp]</text>
</g>
</g>
</svg>
